<svg xmlns="http://www.w3.org/2000/svg" width="1400" height="820" viewBox="0 0 1400 820">
<rect width="100%" height="100%" fill="#18191a"/>
<text x="40" y="54" font-family="Arial,sans-serif" font-size="32" font-weight="700" fill="#ead1b5">Jan Code 4B Implementer v7 · training and validation loss</text>
<text x="40" y="88" font-family="Arial,sans-serif" font-size="18" fill="#b09080">BF16 full fine-tune · 225 optimiser steps · validation every 12 steps</text>
<line x1="105.0" y1="125" x2="105.0" y2="715" stroke="#5c564f" stroke-width="1"/>
<text x="105.0" y="760" text-anchor="middle" font-family="Arial,sans-serif" font-size="15" fill="#b09080">0</text>
<line x1="242.8" y1="125" x2="242.8" y2="715" stroke="#5c564f" stroke-width="1"/>
<text x="242.8" y="760" text-anchor="middle" font-family="Arial,sans-serif" font-size="15" fill="#b09080">25</text>
<line x1="380.6" y1="125" x2="380.6" y2="715" stroke="#5c564f" stroke-width="1"/>
<text x="380.6" y="760" text-anchor="middle" font-family="Arial,sans-serif" font-size="15" fill="#b09080">50</text>
<line x1="518.3" y1="125" x2="518.3" y2="715" stroke="#5c564f" stroke-width="1"/>
<text x="518.3" y="760" text-anchor="middle" font-family="Arial,sans-serif" font-size="15" fill="#b09080">75</text>
<line x1="656.1" y1="125" x2="656.1" y2="715" stroke="#5c564f" stroke-width="1"/>
<text x="656.1" y="760" text-anchor="middle" font-family="Arial,sans-serif" font-size="15" fill="#b09080">100</text>
<line x1="793.9" y1="125" x2="793.9" y2="715" stroke="#5c564f" stroke-width="1"/>
<text x="793.9" y="760" text-anchor="middle" font-family="Arial,sans-serif" font-size="15" fill="#b09080">125</text>
<line x1="931.7" y1="125" x2="931.7" y2="715" stroke="#5c564f" stroke-width="1"/>
<text x="931.7" y="760" text-anchor="middle" font-family="Arial,sans-serif" font-size="15" fill="#b09080">150</text>
<line x1="1069.4" y1="125" x2="1069.4" y2="715" stroke="#5c564f" stroke-width="1"/>
<text x="1069.4" y="760" text-anchor="middle" font-family="Arial,sans-serif" font-size="15" fill="#b09080">175</text>
<line x1="1207.2" y1="125" x2="1207.2" y2="715" stroke="#5c564f" stroke-width="1"/>
<text x="1207.2" y="760" text-anchor="middle" font-family="Arial,sans-serif" font-size="15" fill="#b09080">200</text>
<line x1="1345.0" y1="125" x2="1345.0" y2="715" stroke="#5c564f" stroke-width="1"/>
<text x="1345.0" y="760" text-anchor="middle" font-family="Arial,sans-serif" font-size="15" fill="#b09080">225</text>
<line x1="105" y1="676.7" x2="1345" y2="676.7" stroke="#5c564f" stroke-width="1"/>
<text x="87" y="681.7" text-anchor="end" font-family="Arial,sans-serif" font-size="15" fill="#b09080">0.2</text>
<line x1="105" y1="600.1" x2="1345" y2="600.1" stroke="#5c564f" stroke-width="1"/>
<text x="87" y="605.1" text-anchor="end" font-family="Arial,sans-serif" font-size="15" fill="#b09080">0.3</text>
<line x1="105" y1="523.4" x2="1345" y2="523.4" stroke="#5c564f" stroke-width="1"/>
<text x="87" y="528.4" text-anchor="end" font-family="Arial,sans-serif" font-size="15" fill="#b09080">0.4</text>
<line x1="105" y1="446.8" x2="1345" y2="446.8" stroke="#5c564f" stroke-width="1"/>
<text x="87" y="451.8" text-anchor="end" font-family="Arial,sans-serif" font-size="15" fill="#b09080">0.5</text>
<line x1="105" y1="370.2" x2="1345" y2="370.2" stroke="#5c564f" stroke-width="1"/>
<text x="87" y="375.2" text-anchor="end" font-family="Arial,sans-serif" font-size="15" fill="#b09080">0.6</text>
<line x1="105" y1="293.6" x2="1345" y2="293.6" stroke="#5c564f" stroke-width="1"/>
<text x="87" y="298.6" text-anchor="end" font-family="Arial,sans-serif" font-size="15" fill="#b09080">0.7</text>
<line x1="105" y1="216.9" x2="1345" y2="216.9" stroke="#5c564f" stroke-width="1"/>
<text x="87" y="221.9" text-anchor="end" font-family="Arial,sans-serif" font-size="15" fill="#b09080">0.8</text>
<line x1="105" y1="140.3" x2="1345" y2="140.3" stroke="#5c564f" stroke-width="1"/>
<text x="87" y="145.3" text-anchor="end" font-family="Arial,sans-serif" font-size="15" fill="#b09080">0.9</text>
<polyline points="110.5,164.3 116.0,158.5 121.5,171.6 127.0,186.4 132.6,241.4 138.1,268.2 143.6,238.6 149.1,310.4 154.6,341.0 160.1,385.5 165.6,390.0 171.1,358.5 176.6,401.7 182.2,475.3 187.7,466.8 193.2,477.5 198.7,430.0 204.2,493.3 209.7,472.2 215.2,413.0 220.7,530.6 226.2,481.5 231.8,451.4 237.3,535.4 242.8,563.5 248.3,508.4 253.8,561.8 259.3,544.8 264.8,642.6 270.3,597.8 275.8,563.9 281.4,554.0 286.9,661.0 292.4,583.5 297.9,594.8 303.4,552.5 308.9,627.1 314.4,606.5 319.9,594.9 325.4,614.5 331.0,640.8 336.5,588.3 342.0,592.2 347.5,606.5 353.0,602.7 358.5,658.0 364.0,622.7 369.5,630.7 375.0,579.5 380.6,638.8 386.1,592.0 391.6,668.1 397.1,572.9 402.6,599.1 408.1,587.6 413.6,593.7 419.1,616.0 424.6,544.5 430.2,573.2 435.7,568.1 441.2,580.4 446.7,622.7 452.2,595.0 457.7,689.5 463.2,627.0 468.7,593.6 474.2,583.4 479.8,603.7 485.3,673.3 490.8,634.4 496.3,709.5 501.8,626.8 507.3,657.5 512.8,656.5 518.3,652.2 523.8,680.2 529.4,624.9 534.9,644.5 540.4,639.9 545.9,615.8 551.4,652.5 556.9,658.4 562.4,697.7 567.9,680.4 573.4,643.5 579.0,636.6 584.5,673.1 590.0,596.3 595.5,664.9 601.0,557.3 606.5,667.2 612.0,652.2 617.5,631.7 623.0,626.8 628.6,667.6 634.1,656.6 639.6,658.5 645.1,625.4 650.6,656.6 656.1,649.2 661.6,598.2 667.1,683.5 672.6,603.5 678.2,611.3 683.7,685.9 689.2,694.4 694.7,674.4 700.2,649.2 705.7,618.7 711.2,600.5 716.7,626.7 722.2,633.3 727.8,605.6 733.3,586.1 738.8,656.1 744.3,669.9 749.8,618.7 755.3,684.6 760.8,694.4 766.3,659.1 771.8,646.6 777.4,601.3 782.9,691.7 788.4,693.1 793.9,639.1 799.4,632.0 804.9,649.4 810.4,669.3 815.9,625.4 821.4,651.0 827.0,608.2 832.5,691.7 838.0,650.3 843.5,661.3 849.0,646.6 854.5,669.2 860.0,695.8 865.5,610.4 871.0,619.8 876.6,643.7 882.1,692.8 887.6,654.2 893.1,684.0 898.6,626.2 904.1,657.0 909.6,556.0 915.1,608.9 920.6,703.9 926.2,673.2 931.7,652.5 937.2,720.1 942.7,645.2 948.2,656.3 953.7,704.0 959.2,577.4 964.7,664.1 970.2,682.9 975.8,623.4 981.3,641.0 986.8,693.4 992.3,674.3 997.8,628.2 1003.3,620.5 1008.8,624.2 1014.3,611.9 1019.8,634.5 1025.4,644.6 1030.9,607.3 1036.4,578.2 1041.9,665.9 1047.4,633.1 1052.9,648.7 1058.4,710.8 1063.9,699.7 1069.4,687.5 1075.0,649.2 1080.5,708.0 1086.0,679.0 1091.5,624.1 1097.0,621.4 1102.5,641.0 1108.0,641.8 1113.5,614.1 1119.0,636.4 1124.6,645.4 1130.1,653.2 1135.6,614.6 1141.1,671.9 1146.6,661.6 1152.1,693.7 1157.6,702.8 1163.1,698.9 1168.6,682.9 1174.2,704.4 1179.7,653.0 1185.2,634.9 1190.7,653.0 1196.2,673.5 1201.7,580.8 1207.2,632.7 1212.7,704.6 1218.2,597.2 1223.8,711.1 1229.3,684.3 1234.8,626.6 1240.3,657.5 1245.8,647.5 1251.3,606.4 1256.8,724.3 1262.3,640.6 1267.8,603.3 1273.4,662.4 1278.9,615.0 1284.4,694.6 1289.9,567.3 1295.4,660.2 1300.9,651.7 1306.4,684.1 1311.9,662.2 1317.4,585.0 1323.0,671.5 1328.5,643.7 1334.0,645.9 1339.5,664.7 1345.0,620.6" fill="none" stroke="#ee9b69" stroke-width="2" opacity="0.30"/>
<polyline points="110.5,164.3 116.0,161.4 121.5,164.8 127.0,170.2 132.6,184.5 138.1,198.4 143.6,204.2 149.1,225.0 154.6,251.1 160.1,281.6 165.6,310.7 171.1,327.5 176.6,346.5 182.2,380.4 187.7,402.7 193.2,422.2 198.7,428.6 204.2,443.3 209.7,459.5 215.2,461.1 220.7,469.0 226.2,471.2 231.8,467.4 237.3,482.5 242.8,492.5 248.3,497.7 253.8,518.9 259.3,521.0 264.8,544.0 270.3,564.9 275.8,569.0 281.4,567.6 286.9,589.4 292.4,592.5 297.9,599.7 303.4,586.8 308.9,591.0 314.4,597.1 319.9,602.9 325.4,596.3 331.0,604.4 336.5,603.5 342.0,609.2 347.5,606.2 353.0,605.7 358.5,614.7 364.0,615.9 369.5,614.5 375.0,613.2 380.6,619.8 386.1,617.8 391.6,627.1 397.1,615.0 402.6,611.6 408.1,605.4 413.6,607.4 419.1,604.2 424.6,597.4 430.2,583.8 435.7,583.2 441.2,580.5 446.7,585.5 452.2,585.7 457.7,596.2 463.2,608.0 468.7,610.9 474.2,613.1 479.8,616.4 485.3,623.6 490.8,629.3 496.3,632.1 501.8,632.1 507.3,641.2 512.8,651.7 518.3,658.6 523.8,659.6 529.4,658.2 534.9,648.9 540.4,650.8 545.9,644.9 551.4,644.3 556.9,645.2 562.4,647.7 567.9,655.6 573.4,655.5 579.0,655.0 584.5,663.2 590.0,655.1 595.5,656.1 601.0,636.0 606.5,634.1 612.0,635.4 617.5,634.7 623.0,628.1 628.6,638.2 634.1,637.1 639.6,651.5 645.1,645.5 650.6,646.2 656.1,648.7 661.6,644.6 667.1,646.8 672.6,639.3 678.2,632.5 683.7,641.2 689.2,646.6 694.7,650.2 700.2,657.5 705.7,648.2 711.2,647.8 716.7,650.0 722.2,642.5 727.8,629.8 733.3,617.2 738.8,618.1 744.3,625.5 749.8,628.1 755.3,636.3 760.8,645.0 766.3,652.7 771.8,661.3 777.4,653.5 782.9,656.6 788.4,667.2 793.9,660.8 799.4,651.8 804.9,650.5 810.4,653.7 815.9,657.1 821.4,651.3 827.0,639.2 832.5,646.7 838.0,649.3 843.5,651.0 849.0,647.8 854.5,654.0 860.0,660.4 865.5,660.8 871.0,650.5 876.6,649.5 882.1,654.0 887.6,655.1 893.1,657.2 898.6,647.3 904.1,654.0 909.6,644.8 915.1,639.9 920.6,641.5 926.2,644.2 931.7,639.7 937.2,653.1 942.7,651.4 948.2,665.8 953.7,679.3 959.2,661.3 964.7,660.0 970.2,664.3 975.8,650.5 981.3,649.9 986.8,655.2 992.3,650.9 997.8,658.2 1003.3,651.9 1008.8,643.6 1014.3,641.9 1019.8,641.0 1025.4,634.0 1030.9,624.5 1036.4,617.3 1041.9,623.8 1047.4,625.1 1052.9,630.3 1058.4,641.2 1063.9,649.1 1069.4,660.6 1075.0,670.7 1080.5,676.7 1086.0,683.3 1091.5,679.8 1097.0,667.0 1102.5,658.6 1108.0,652.1 1113.5,647.1 1119.0,636.9 1124.6,632.1 1130.1,636.2 1135.6,635.2 1141.1,639.6 1146.6,642.5 1152.1,653.8 1157.6,663.3 1163.1,671.0 1168.6,675.2 1174.2,688.0 1179.7,685.3 1185.2,681.5 1190.7,675.7 1196.2,671.5 1201.7,654.7 1207.2,647.5 1212.7,647.5 1218.2,639.5 1223.8,650.4 1229.3,654.9 1234.8,648.2 1240.3,659.1 1245.8,661.2 1251.3,647.2 1256.8,665.4 1262.3,655.3 1267.8,643.8 1273.4,648.9 1278.9,642.8 1284.4,649.5 1289.9,643.9 1295.4,634.8 1300.9,636.4 1306.4,647.9 1311.9,647.9 1317.4,643.6 1323.0,640.3 1328.5,651.2 1334.0,649.1 1339.5,651.0 1345.0,641.9" fill="none" stroke="#e77843" stroke-width="5"/>
<polyline points="171.1,382.5 237.3,463.9 303.4,506.7 369.5,527.3 435.7,543.1 501.8,555.6 567.9,561.9 634.1,566.8 700.2,570.4 766.3,572.6 832.5,574.1 898.6,575.0 964.7,575.6 1030.9,575.9 1097.0,575.9 1163.1,576.1 1229.3,576.3 1295.4,576.2" fill="none" stroke="#79c39e" stroke-width="5"/>
<circle cx="171.1" cy="382.5" r="6" fill="#18191a" stroke="#79c39e" stroke-width="4"/>
<circle cx="237.3" cy="463.9" r="6" fill="#18191a" stroke="#79c39e" stroke-width="4"/>
<circle cx="303.4" cy="506.7" r="6" fill="#18191a" stroke="#79c39e" stroke-width="4"/>
<circle cx="369.5" cy="527.3" r="6" fill="#18191a" stroke="#79c39e" stroke-width="4"/>
<circle cx="435.7" cy="543.1" r="6" fill="#18191a" stroke="#79c39e" stroke-width="4"/>
<circle cx="501.8" cy="555.6" r="6" fill="#18191a" stroke="#79c39e" stroke-width="4"/>
<circle cx="567.9" cy="561.9" r="6" fill="#18191a" stroke="#79c39e" stroke-width="4"/>
<circle cx="634.1" cy="566.8" r="6" fill="#18191a" stroke="#79c39e" stroke-width="4"/>
<circle cx="700.2" cy="570.4" r="6" fill="#18191a" stroke="#79c39e" stroke-width="4"/>
<circle cx="766.3" cy="572.6" r="6" fill="#18191a" stroke="#79c39e" stroke-width="4"/>
<circle cx="832.5" cy="574.1" r="6" fill="#18191a" stroke="#79c39e" stroke-width="4"/>
<circle cx="898.6" cy="575.0" r="6" fill="#18191a" stroke="#79c39e" stroke-width="4"/>
<circle cx="964.7" cy="575.6" r="6" fill="#18191a" stroke="#79c39e" stroke-width="4"/>
<circle cx="1030.9" cy="575.9" r="6" fill="#18191a" stroke="#79c39e" stroke-width="4"/>
<circle cx="1097.0" cy="575.9" r="6" fill="#18191a" stroke="#79c39e" stroke-width="4"/>
<circle cx="1163.1" cy="576.1" r="6" fill="#18191a" stroke="#79c39e" stroke-width="4"/>
<circle cx="1229.3" cy="576.3" r="6" fill="#18191a" stroke="#79c39e" stroke-width="4"/>
<circle cx="1295.4" cy="576.2" r="6" fill="#18191a" stroke="#79c39e" stroke-width="4"/>
<circle cx="1229.3" cy="576.3" r="10" fill="#79c39e" stroke="#ead1b5" stroke-width="3"/>
<line x1="1229.3" y1="563.3" x2="1104.3" y2="498.3" stroke="#79c39e" stroke-width="3"/>
<rect x="794.3" y="451.3" width="355.0" height="54" rx="8" fill="#383431" stroke="#79c39e" stroke-width="2"/>
<text x="810.3" y="485.3" font-family="Arial,sans-serif" font-size="17" font-weight="700" fill="#ead1b5">Best validation 0.33107 · step 204</text>
<text x="725.0" y="798" text-anchor="middle" font-family="Arial,sans-serif" font-size="17" fill="#ead1b5">Optimiser step</text>
<text x="28" y="420.0" transform="rotate(-90 28 420.0)" text-anchor="middle" font-family="Arial,sans-serif" font-size="17" fill="#ead1b5">Cross-entropy loss</text>
<rect x="920" y="103" width="18" height="18" fill="#e77843"/><text x="947" y="118" font-family="Arial,sans-serif" font-size="16" fill="#ead1b5">Training · 7-step mean</text>
<rect x="1170" y="103" width="18" height="18" fill="#79c39e"/><text x="1197" y="118" font-family="Arial,sans-serif" font-size="16" fill="#ead1b5">Validation</text>
</svg>
